<?xml version="1.0" encoding="UTF-8"?>
<!DOCTYPE svg PUBLIC "-//W3C//DTD SVG 1.0//EN"
  "http://www.w3.org/TR/2001/REC-SVG-20010904/DTD/svg10.dtd"><!--

   Author: Yves Baelde

   Aspect ratio  1/1

--><svg viewBox="-30 -156 1824 1824" width="600" height="600" xmlns="http://www.w3.org/2000/svg" preserveAspectRatio="xMinYMin" pointer-events="none" xml:space="preserve"><path fill="#fff"
 d="M-30-156h1824v1824H-30"/><path fill="#8cd" d="m617 420-571 153 265 989M252-96H43v362m56 15h209V-81"/><g fill="none" stroke-width="21"><path stroke="#510" stroke-width="63"
 d="M43 102a164 164 0 0 1 82 22m101-63a164 164 0 0 0 82 22m58 0a164 164 0 0 0 82-22M214 1200a375 375 0 0 1 194 0M990 103a274 274 0 0 1 0 142"/><path stroke="#8cd"
 d="M43 102a164 164 0 0 1 82 22m101-63a164 164 0 0 0 82 22M214 1200a375 375 0 0 1 194 0"/><path stroke="#fff" d="M366 83a164 164 0 0 0 82-22M990 103a274 274 0 0 1 0 142"/><path stroke="#000"
 stroke-width="14" stroke-linejoin="round" d="m46 573 571-153-306 1142zm26 97 97-26-26-97m582-373 836-224-112 418zM252-96H43v362zm56 15v362H99zm58 0v362h209z"/><path stroke-width="9"
 stroke="#000" d="M94-96v51H43M257 281V230h51m58 0h51v51m961 68 19-71 71 19M819 750h-207m0 354h207m198 0h204m0-354h-204M954 759h-75m0-27h75m0 354h-75m0 27h75m330 0h75m0-27h-75m0-354h75m0
  27h-75M798 1470h-75m0 27h75m477 0h75m0-27h-75M447 1488h216m195 0h357"/></g><text font-family='"Bitstream Charter",serif' font-size="99" y="1455" x="900">s<tspan x="966">i</tspan><tspan
 x="1017">n</tspan><tspan x="1119" font-style="italic">θ<tspan font-family='"DejaVu Sans",sans-serif' x="474">U<tspan x="567">V</tspan><tspan y="717" x="633">U</tspan><tspan
 x="726">V</tspan><tspan x="1038">B</tspan><tspan x="1131">C</tspan><tspan y="867" x="621">U</tspan><tspan x="714">T</tspan><tspan x="1029">B</tspan><tspan x="1122">A</tspan><tspan y="1071"
 x="633">T</tspan><tspan x="726">V</tspan><tspan x="1038">A</tspan><tspan x="1131">C</tspan><tspan y="1221" x="621">T</tspan><tspan x="714">U</tspan><tspan x="1029">A</tspan><tspan
 x="1122">B</tspan><tspan y="1602" x="465">T</tspan><tspan x="555">V</tspan></tspan></tspan><tspan x="894">c</tspan><tspan x="954">o</tspan><tspan x="1026">s</tspan><tspan font-style="italic"
 x="1113">θ<tspan font-family='"DejaVu Sans",sans-serif' font-size="144" x="99">T<tspan x="1617" y="3">B</tspan><tspan x="-9" y="498">V</tspan><tspan y="471" x="675">U</tspan><tspan
 x="1512">C</tspan><tspan x="645" y="99">A</tspan></tspan><tspan font-size="111" y="1125" x="1654">θ</tspan></tspan><tspan font-size="105" fill="#051" font-weight="bold" x="1417">c<tspan
 x="1487">o</tspan><tspan x="1563">s</tspan><tspan y="1509" x="1411">t</tspan><tspan x="1472">a</tspan><tspan x="1545">n</tspan></tspan><tspan font-size="111" font-style="italic"
 x="1647">θ<tspan font-size="156" fill="#510" x="252" y="1089">θ<tspan font-size="141" x="1080" y="228">θ</tspan></tspan><tspan font-size="111" y="771"
 x="1648">θ</tspan></tspan><tspan font-size="105" fill="#051" font-weight="bold" x="1425">s<tspan x="1494">i</tspan><tspan x="1545">n</tspan></tspan></text></svg>
